<svg width="35" height="37" viewBox="0 0 35 37" fill="none" xmlns="http://www.w3.org/2000/svg">
<path d="M25.6214 6.11794H24.198V4.58845C24.198 4.18281 24.048 3.79377 23.7811 3.50694C23.5141 3.2201 23.1521 3.05896 22.7746 3.05896C22.3971 3.05896 22.035 3.2201 21.7681 3.50694C21.5011 3.79377 21.3512 4.18281 21.3512 4.58845V6.11794H12.8107V4.58845C12.8107 4.18281 12.6607 3.79377 12.3938 3.50694C12.1269 3.2201 11.7648 3.05896 11.3873 3.05896C11.0098 3.05896 10.6477 3.2201 10.3808 3.50694C10.1138 3.79377 9.96388 4.18281 9.96388 4.58845V6.11794H8.54047C7.40793 6.11794 6.32178 6.60137 5.52096 7.46188C4.72013 8.32238 4.27023 9.48948 4.27023 10.7064V29.0603C4.27023 30.2773 4.72013 31.4444 5.52096 32.3049C6.32178 33.1654 7.40793 33.6488 8.54047 33.6488H25.6214C26.7539 33.6488 27.8401 33.1654 28.6409 32.3049C29.4417 31.4444 29.8916 30.2773 29.8916 29.0603V10.7064C29.8916 9.48948 29.4417 8.32238 28.6409 7.46188C27.8401 6.60137 26.7539 6.11794 25.6214 6.11794ZM8.54047 9.17693H9.96388V10.7064C9.96388 11.1121 10.1138 11.5011 10.3808 11.7879C10.6477 12.0748 11.0098 12.2359 11.3873 12.2359C11.7648 12.2359 12.1269 12.0748 12.3938 11.7879C12.6607 11.5011 12.8107 11.1121 12.8107 10.7064V9.17693H21.3512V10.7064C21.3512 11.1121 21.5011 11.5011 21.7681 11.7879C22.035 12.0748 22.3971 12.2359 22.7746 12.2359C23.1521 12.2359 23.5141 12.0748 23.7811 11.7879C24.048 11.5011 24.198 11.1121 24.198 10.7064V9.17693H25.6214C25.9989 9.17693 26.361 9.33807 26.6279 9.62491C26.8949 9.91174 27.0448 10.3008 27.0448 10.7064V16.8244H7.11706V10.7064C7.11706 10.3008 7.26702 9.91174 7.53396 9.62491C7.80091 9.33807 8.16296 9.17693 8.54047 9.17693ZM25.6214 30.5898H8.54047C8.16296 30.5898 7.80091 30.4287 7.53396 30.1418C7.26702 29.855 7.11706 29.466 7.11706 29.0603V19.8834H27.0448V29.0603C27.0448 29.466 26.8949 29.855 26.6279 30.1418C26.361 30.4287 25.9989 30.5898 25.6214 30.5898Z" fill="#231F20"/>
<path d="M11.3873 26.0014C12.1734 26.0014 12.8107 25.3166 12.8107 24.4719C12.8107 23.6272 12.1734 22.9424 11.3873 22.9424C10.6012 22.9424 9.96387 23.6272 9.96387 24.4719C9.96387 25.3166 10.6012 26.0014 11.3873 26.0014Z" fill="#231F20"/>
<path d="M22.7746 22.9424H17.0809C16.7034 22.9424 16.3414 23.1035 16.0744 23.3904C15.8075 23.6772 15.6575 24.0662 15.6575 24.4719C15.6575 24.8775 15.8075 25.2666 16.0744 25.5534C16.3414 25.8402 16.7034 26.0014 17.0809 26.0014H22.7746C23.1521 26.0014 23.5142 25.8402 23.7811 25.5534C24.048 25.2666 24.198 24.8775 24.198 24.4719C24.198 24.0662 24.048 23.6772 23.7811 23.3904C23.5142 23.1035 23.1521 22.9424 22.7746 22.9424Z" fill="#231F20"/>
</svg>
