<svg width="1440" height="1024" viewBox="0 0 1440 1024" fill="none" xmlns="http://www.w3.org/2000/svg">
<g clip-path="url(#clip0_405_545)">
<rect width="1440" height="1024" fill="#FFF9ED"/>
<rect y="882" width="1440" height="145" fill="#005A6D"/>
<path d="M52.008 926.88C51.912 926.528 53.528 926.352 56.856 926.352C60.536 926.352 62.424 926.656 62.52 927.264L64.872 947.472L69.96 927.024C70.12 926.544 71.368 926.304 73.704 926.304C76.04 926.304 77.288 926.528 77.448 926.976L82.44 947.568L85.224 927.168C85.288 926.816 86.024 926.576 87.432 926.448C88.84 926.32 89.976 926.256 90.84 926.256C94.2 926.256 95.832 926.48 95.736 926.928L89.928 958.752C89.8 959.232 88.888 959.584 87.192 959.808C85.496 960.032 84.12 960.144 83.064 960.144C79.096 960.144 77.016 959.696 76.824 958.8L73.56 945.6L70.008 958.752C69.88 959.328 68.76 959.744 66.648 960C65.56 960.096 64.472 960.144 63.384 960.144L60.312 960C58.2 959.776 57.08 959.376 56.952 958.8L52.008 926.88ZM100.997 942.576C100.101 940.976 99.6525 939.68 99.6525 938.688C99.6525 937.664 99.9245 937.008 100.469 936.72C102.293 935.92 104.789 935.52 107.957 935.52C111.157 935.52 113.413 936.272 114.725 937.776C116.037 939.248 116.693 941.44 116.693 944.352V951.936H118.325C118.869 951.936 119.285 952.256 119.573 952.896C119.893 953.536 120.052 954.416 120.052 955.536C120.052 956.656 119.765 957.76 119.189 958.848C118.645 959.936 117.893 960.48 116.933 960.48C115.205 960.48 113.813 960.016 112.757 959.088C112.277 958.704 111.909 958.24 111.653 957.696C110.181 959.552 107.893 960.48 104.789 960.48C102.453 960.48 100.485 959.648 98.8845 957.984C97.2845 956.32 96.4845 954.352 96.4845 952.08C96.4845 946.864 99.6045 944.256 105.845 944.256H108.484V943.776C108.484 942.944 108.341 942.416 108.053 942.192C107.797 941.936 107.173 941.808 106.181 941.808C104.965 941.808 103.237 942.064 100.997 942.576ZM104.837 951.408C104.837 952.112 105.029 952.656 105.413 953.04C105.797 953.392 106.277 953.568 106.853 953.568C107.461 953.568 108.005 953.328 108.484 952.848V949.152H107.141C105.605 949.152 104.837 949.904 104.837 951.408ZM132.801 959.712C132.801 959.936 131.649 960.048 129.345 960.048C126.145 959.952 124.545 959.776 124.545 959.52V943.968H123.297C122.465 943.968 121.921 943.264 121.665 941.856C121.601 941.44 121.569 941.024 121.569 940.608C121.569 939.616 121.761 938.624 122.145 937.632C122.721 936.224 123.617 935.52 124.833 935.52C126.049 935.52 127.137 935.808 128.097 936.384C129.057 936.96 129.697 937.536 130.017 938.112C132.033 936.384 134.433 935.52 137.217 935.52C140.001 935.52 142.017 936.272 143.265 937.776C144.513 939.28 145.137 941.744 145.137 945.168V959.568C145.137 959.952 143.761 960.144 141.009 960.144C138.289 960.144 136.929 959.952 136.929 959.568V945.696C136.929 944.096 136.369 943.296 135.249 943.296C134.929 943.296 134.481 943.44 133.905 943.728C133.329 943.984 132.961 944.176 132.801 944.304V959.712ZM161.351 926.688C161.351 926.208 162.615 925.968 165.143 925.968C166.007 925.968 166.999 926.032 168.119 926.16C169.271 926.256 169.847 926.4 169.847 926.592V951.888H171.527C172.327 951.888 172.855 952.608 173.111 954.048C173.175 954.464 173.207 955.04 173.207 955.776C173.207 956.48 172.983 957.344 172.535 958.368C171.895 959.776 170.871 960.48 169.463 960.48C168.407 960.48 167.463 960.272 166.631 959.856C165.831 959.44 165.287 959.008 164.999 958.56L164.567 957.936C162.807 959.632 160.599 960.48 157.943 960.48C155.287 960.48 153.015 959.376 151.127 957.168C149.239 954.96 148.295 951.888 148.295 947.952C148.295 943.984 149.287 940.928 151.271 938.784C153.255 936.608 155.735 935.52 158.711 935.52C159.575 935.52 160.455 935.616 161.351 935.808V926.688ZM159.767 943.2C157.975 943.2 157.079 944.816 157.079 948.048C157.079 949.68 157.335 950.864 157.847 951.6C158.359 952.304 158.919 952.656 159.527 952.656C160.167 952.656 160.775 952.384 161.351 951.84V943.68C160.807 943.36 160.279 943.2 159.767 943.2ZM194.492 958.704C192.476 959.888 189.884 960.48 186.716 960.48C183.548 960.48 180.876 959.408 178.7 957.264C176.524 955.088 175.436 952.096 175.436 948.288C175.436 944.448 176.476 941.36 178.556 939.024C180.668 936.688 183.324 935.52 186.523 935.52C189.724 935.52 192.188 936.336 193.916 937.968C195.676 939.6 196.556 941.584 196.556 943.92C196.556 949.104 193.58 951.696 187.628 951.696H184.316C184.316 952.656 184.572 953.328 185.084 953.712C185.628 954.064 186.412 954.24 187.436 954.24C189.676 954.24 191.804 953.728 193.82 952.704C193.852 952.672 193.996 952.896 194.252 953.376C195.02 954.752 195.404 955.92 195.404 956.88C195.404 957.808 195.1 958.416 194.492 958.704ZM188.492 944.832C188.492 943.488 187.836 942.816 186.523 942.816C185.916 942.816 185.388 943.008 184.94 943.392C184.524 943.744 184.316 944.272 184.316 944.976V946.464H186.908C187.964 946.464 188.492 945.92 188.492 944.832ZM210.203 959.952C210.203 960.176 208.747 960.288 205.835 960.288C202.923 960.224 201.467 960.096 201.467 959.904V943.968H200.171C199.659 943.968 199.243 943.664 198.923 943.056C198.635 942.416 198.491 941.632 198.491 940.704C198.491 937.248 199.515 935.52 201.563 935.52C203.003 935.52 204.203 935.968 205.163 936.864C206.123 937.728 206.603 938.72 206.603 939.84C207.275 938.528 208.171 937.488 209.291 936.72C210.443 935.92 211.611 935.52 212.795 935.52C214.651 935.52 215.771 936 216.155 936.96C216.251 937.216 216.299 937.6 216.299 938.112C216.299 938.592 216.139 939.472 215.819 940.752C215.531 942.032 215.227 942.96 214.907 943.536C214.587 944.112 214.395 944.4 214.331 944.4C214.267 944.4 213.963 944.288 213.419 944.064C212.907 943.808 212.443 943.68 212.027 943.68C210.811 943.68 210.203 944.64 210.203 946.56V959.952ZM217.571 926.88C217.475 926.528 219.091 926.352 222.419 926.352C226.099 926.352 227.987 926.656 228.083 927.264L230.435 947.472L235.523 927.024C235.683 926.544 236.931 926.304 239.267 926.304C241.603 926.304 242.851 926.528 243.01 926.976L248.003 947.568L250.787 927.168C250.851 926.816 251.587 926.576 252.995 926.448C254.403 926.32 255.539 926.256 256.403 926.256C259.763 926.256 261.395 926.48 261.299 926.928L255.491 958.752C255.363 959.232 254.451 959.584 252.755 959.808C251.059 960.032 249.683 960.144 248.627 960.144C244.659 960.144 242.579 959.696 242.387 958.8L239.123 945.6L235.571 958.752C235.443 959.328 234.323 959.744 232.211 960C231.123 960.096 230.035 960.144 228.947 960.144L225.875 960C223.763 959.776 222.643 959.376 222.515 958.8L217.571 926.88ZM273.257 959.712C273.257 959.968 271.785 960.096 268.841 960.096C265.929 960.096 264.473 959.984 264.473 959.76V936.192C264.473 935.968 265.929 935.856 268.841 935.856C271.785 935.856 273.257 935.952 273.257 936.144V959.712ZM273.257 933.312C273.257 933.536 271.785 933.648 268.841 933.648C265.929 933.648 264.473 933.552 264.473 933.36V926.448C264.473 926.128 265.929 925.968 268.841 925.968C271.785 925.968 273.257 926.064 273.257 926.256V933.312ZM278.605 951.36C281.197 952.928 283.246 953.712 284.75 953.712C285.71 953.712 286.19 953.376 286.19 952.704C286.19 952.224 285.358 951.6 283.694 950.832C279.694 949.2 277.694 946.528 277.694 942.816C277.694 940.448 278.558 938.64 280.286 937.392C282.014 936.144 284.078 935.52 286.478 935.52C288.91 935.52 290.958 935.776 292.622 936.288C294.318 936.8 295.166 937.472 295.166 938.304C295.166 939.008 294.814 939.936 294.11 941.088C293.438 942.24 292.974 942.864 292.718 942.96C291.342 942.192 289.854 941.808 288.254 941.808C287.39 941.808 286.958 942.112 286.958 942.72C286.958 943.104 287.118 943.44 287.438 943.728C287.79 943.984 288.414 944.32 289.31 944.736C290.206 945.12 290.942 945.472 291.518 945.792C292.126 946.112 292.798 946.56 293.534 947.136C295.07 948.352 295.838 949.936 295.838 951.888C295.838 954.448 294.99 956.528 293.294 958.128C291.598 959.696 289.038 960.48 285.614 960.48C283.342 960.48 281.278 960.096 279.422 959.328C277.566 958.56 276.638 957.504 276.638 956.16C276.638 955.264 276.846 954.32 277.262 953.328C277.71 952.336 278.158 951.68 278.605 951.36ZM317.351 958.704C315.335 959.888 312.743 960.48 309.575 960.48C306.407 960.48 303.735 959.408 301.559 957.264C299.383 955.088 298.295 952.096 298.295 948.288C298.295 944.448 299.335 941.36 301.415 939.024C303.527 936.688 306.183 935.52 309.383 935.52C312.583 935.52 315.047 936.336 316.775 937.968C318.535 939.6 319.415 941.584 319.415 943.92C319.415 949.104 316.439 951.696 310.487 951.696H307.175C307.175 952.656 307.431 953.328 307.943 953.712C308.487 954.064 309.271 954.24 310.295 954.24C312.535 954.24 314.663 953.728 316.679 952.704C316.711 952.672 316.855 952.896 317.111 953.376C317.879 954.752 318.263 955.92 318.263 956.88C318.263 957.808 317.959 958.416 317.351 958.704ZM311.351 944.832C311.351 943.488 310.695 942.816 309.383 942.816C308.775 942.816 308.247 943.008 307.799 943.392C307.383 943.744 307.175 944.272 307.175 944.976V946.464H309.767C310.823 946.464 311.351 945.92 311.351 944.832Z" fill="white"/>
<path d="M51 964.8H320.375V967.2H51V964.8Z" fill="white"/>
<path d="M69.8162 990.187L66.2265 990.14L64.066 980.901L64.6059 980.908L62.2869 990.088L58.6772 990.041L55.781 976.803L59.2107 976.847L60.7209 986.128L60.6809 986.127L63.2404 976.9L65.4902 976.929L67.9003 986.221L67.8603 986.221L69.5298 976.982L72.9595 977.027L69.8162 990.187ZM74.7066 990.251L74.7772 982.041L77.817 982.081L77.7463 990.29L74.7066 990.251ZM76.3516 980.371C75.8717 980.365 75.4665 980.193 75.136 979.855C74.8057 979.511 74.6425 979.106 74.6465 978.639C74.6505 978.172 74.8206 977.771 75.1569 977.436C75.4998 977.093 75.9079 976.925 76.3812 976.931C76.6945 976.936 76.9805 977.019 77.2391 977.183C77.4977 977.339 77.7059 977.549 77.8637 977.811C78.0214 978.073 78.0989 978.364 78.0962 978.684C78.0922 979.151 77.9187 979.552 77.5758 979.887C77.233 980.216 76.8249 980.378 76.3516 980.371ZM83.5929 981.916C84.1329 981.923 84.6258 981.976 85.0716 982.075C85.5175 982.168 85.8899 982.273 86.1889 982.39C86.4946 982.507 86.6904 982.603 86.7764 982.678L85.7711 984.455C85.6453 984.36 85.4097 984.237 85.0643 984.085C84.7256 983.934 84.3462 983.856 83.9263 983.85C83.6063 983.846 83.3359 983.893 83.1151 983.99C82.8943 984.08 82.783 984.229 82.7812 984.436C82.7794 984.642 82.898 984.81 83.1369 984.94C83.3825 985.063 83.7349 985.175 84.194 985.274C84.5933 985.359 84.9989 985.491 85.4107 985.67C85.8225 985.849 86.1636 986.11 86.4339 986.453C86.7111 986.79 86.8472 987.239 86.8424 987.799C86.8375 988.372 86.7101 988.844 86.4602 989.214C86.2103 989.584 85.8812 989.87 85.4728 990.071C85.0644 990.272 84.6232 990.41 84.1492 990.484C83.6752 990.564 83.2148 990.602 82.7682 990.596C82.1416 990.588 81.5955 990.524 81.1298 990.404C80.6708 990.285 80.2986 990.15 80.0133 990C79.7279 989.849 79.5289 989.73 79.4163 989.642L80.4134 987.655C80.5855 987.804 80.8674 987.974 81.2591 988.166C81.6508 988.351 82.0667 988.447 82.5066 988.452C82.9333 988.458 83.2638 988.399 83.4982 988.275C83.7326 988.152 83.8507 987.986 83.8525 987.78C83.8539 987.613 83.7984 987.479 83.6859 987.378C83.5735 987.276 83.4142 987.187 83.2082 987.111C83.0022 987.035 82.7528 986.965 82.46 986.902C82.1938 986.845 81.9112 986.758 81.6122 986.64C81.3132 986.523 81.0312 986.366 80.7662 986.169C80.5013 985.966 80.2868 985.713 80.1227 985.411C79.9587 985.109 79.8785 984.744 79.8821 984.318C79.8868 983.771 80.0674 983.32 80.4238 982.965C80.7802 982.609 81.2392 982.345 81.8007 982.173C82.3622 981.993 82.9596 981.908 83.5929 981.916ZM90.8831 987.002C90.9006 987.295 90.9917 987.556 91.1564 987.785C91.3211 988.014 91.5495 988.197 91.8417 988.334C92.1405 988.465 92.4933 988.533 92.8999 988.538C93.2866 988.543 93.6336 988.508 93.9409 988.432C94.2549 988.356 94.5257 988.259 94.7534 988.142C94.9877 988.025 95.1688 987.904 95.2965 987.779L96.4603 989.675C96.2921 989.852 96.0539 990.026 95.7458 990.195C95.4443 990.358 95.0465 990.489 94.5523 990.59C94.0581 990.69 93.4344 990.735 92.6811 990.725C91.7745 990.713 90.9694 990.533 90.2657 990.184C89.562 989.834 89.0097 989.327 88.6088 988.662C88.2078 987.997 88.0114 987.187 88.0196 986.234C88.0265 985.434 88.206 984.716 88.5582 984.081C88.917 983.439 89.4314 982.936 90.1012 982.571C90.7711 982.2 91.576 982.02 92.5159 982.032C93.4092 982.044 94.181 982.218 94.8315 982.553C95.4886 982.888 95.9911 983.381 96.3388 984.032C96.6933 984.677 96.8664 985.479 96.8581 986.439C96.8576 986.493 96.8534 986.599 96.8453 986.759C96.844 986.919 96.8364 987.026 96.8226 987.079L90.8831 987.002ZM94.0065 985.452C94.0017 985.239 93.9468 985.028 93.842 984.82C93.7371 984.605 93.5786 984.43 93.3665 984.294C93.1544 984.151 92.8816 984.077 92.5483 984.073C92.215 984.069 91.9312 984.132 91.6967 984.262C91.469 984.386 91.2942 984.55 91.1724 984.755C91.0507 984.96 90.9821 985.179 90.9668 985.412L94.0065 985.452ZM111.419 977.529L114.409 977.568L114.339 985.678C114.33 986.764 114.108 987.705 113.675 988.499C113.241 989.287 112.626 989.896 111.829 990.325C111.032 990.748 110.084 990.952 108.984 990.938C107.877 990.924 106.926 990.695 106.129 990.251C105.333 989.8 104.725 989.176 104.306 988.377C103.892 987.571 103.691 986.625 103.7 985.539L103.77 977.429L106.749 977.468L106.681 985.418C106.676 986.018 106.765 986.525 106.948 986.941C107.138 987.357 107.408 987.674 107.76 987.892C108.111 988.103 108.527 988.212 109.007 988.218C109.48 988.224 109.891 988.126 110.24 987.924C110.588 987.715 110.857 987.406 111.048 986.995C111.244 986.584 111.346 986.079 111.351 985.479L111.419 977.529ZM119.373 994.994L116.364 994.955L116.47 982.585L119.51 982.625L119.499 983.825C119.594 983.639 119.773 983.438 120.035 983.222C120.303 982.999 120.642 982.81 121.05 982.655C121.464 982.494 121.932 982.416 122.452 982.423C123.252 982.434 123.933 982.639 124.496 983.04C125.066 983.441 125.502 983.973 125.803 984.637C126.104 985.294 126.251 986.023 126.244 986.823C126.237 987.623 126.067 988.351 125.735 989.007C125.403 989.656 124.938 990.173 124.342 990.558C123.752 990.937 123.057 991.122 122.257 991.111C121.684 991.104 121.194 990.997 120.79 990.792C120.391 990.58 120.077 990.349 119.846 990.1C119.621 989.843 119.479 989.645 119.421 989.504L119.373 994.994ZM123.274 986.784C123.277 986.411 123.197 986.077 123.033 985.781C122.869 985.479 122.644 985.243 122.359 985.072C122.08 984.895 121.764 984.804 121.411 984.8C121.045 984.795 120.714 984.877 120.419 985.047C120.131 985.21 119.902 985.44 119.733 985.738C119.564 986.029 119.478 986.361 119.474 986.735C119.471 987.108 119.552 987.446 119.716 987.748C119.88 988.043 120.105 988.276 120.39 988.447C120.682 988.617 121.011 988.705 121.378 988.71C121.731 988.714 122.048 988.635 122.33 988.472C122.618 988.309 122.846 988.082 123.015 987.791C123.185 987.493 123.271 987.158 123.274 986.784ZM136.44 986.306L131.963 977.797L135.592 977.844L137.959 982.906L140.422 977.907L144.032 977.955L139.429 986.345L139.389 991.095L136.399 991.056L136.44 986.306ZM147.997 991.447C147.097 991.436 146.299 991.242 145.602 990.866C144.912 990.484 144.37 989.967 143.975 989.315C143.588 988.656 143.397 987.907 143.405 987.067C143.412 986.227 143.615 985.483 144.014 984.835C144.419 984.18 144.971 983.667 145.667 983.296C146.37 982.925 147.172 982.746 148.072 982.758C148.972 982.769 149.763 982.97 150.447 983.359C151.13 983.748 151.662 984.275 152.043 984.94C152.424 985.598 152.611 986.347 152.604 987.187C152.597 988.027 152.397 988.771 152.005 989.419C151.612 990.061 151.071 990.564 150.382 990.928C149.692 991.286 148.897 991.459 147.997 991.447ZM148.019 988.947C148.365 988.952 148.666 988.879 148.92 988.729C149.175 988.579 149.374 988.365 149.516 988.087C149.658 987.809 149.731 987.493 149.734 987.14C149.737 986.78 149.67 986.459 149.532 986.177C149.395 985.895 149.2 985.673 148.948 985.509C148.696 985.346 148.397 985.262 148.05 985.258C147.704 985.253 147.4 985.329 147.138 985.486C146.884 985.642 146.682 985.86 146.533 986.138C146.39 986.416 146.318 986.735 146.314 987.095C146.311 987.448 146.379 987.766 146.516 988.048C146.66 988.33 146.859 988.549 147.111 988.706C147.369 988.862 147.672 988.943 148.019 988.947ZM157.068 986.915C157.063 987.569 157.181 988.094 157.425 988.49C157.668 988.88 158.08 989.079 158.66 989.086C159.253 989.094 159.671 988.906 159.915 988.523C160.165 988.133 160.292 987.611 160.298 986.958L160.331 983.158L163.33 983.197L163.295 987.317C163.287 988.197 163.098 988.961 162.725 989.609C162.36 990.251 161.832 990.745 161.142 991.089C160.453 991.433 159.618 991.599 158.638 991.586C157.665 991.574 156.836 991.386 156.153 991.024C155.469 990.661 154.95 990.155 154.596 989.503C154.242 988.845 154.068 988.076 154.076 987.196L154.111 983.076L157.101 983.116L157.068 986.915ZM167.886 991.467L164.847 991.427L164.917 983.218L167.957 983.257L167.946 984.527L167.896 984.527C167.951 984.374 168.082 984.182 168.291 983.952C168.5 983.714 168.792 983.505 169.167 983.323C169.542 983.135 169.999 983.044 170.539 983.051C170.919 983.056 171.268 983.12 171.587 983.245C171.906 983.362 172.139 983.475 172.284 983.584L171.083 986.038C170.991 985.924 170.825 985.805 170.586 985.682C170.354 985.552 170.061 985.485 169.708 985.48C169.301 985.475 168.964 985.574 168.695 985.777C168.434 985.98 168.238 986.228 168.109 986.519C167.987 986.811 167.924 987.087 167.922 987.347L167.886 991.467ZM191.837 991.78L188.247 991.733L186.087 982.494L186.627 982.501L184.308 991.681L180.698 991.634L177.802 978.395L181.232 978.44L182.742 987.721L182.702 987.72L185.261 978.493L187.511 978.522L189.921 987.814L189.881 987.814L191.551 978.575L194.98 978.62L191.837 991.78ZM202.352 991.917L202.364 990.587C202.303 990.719 202.148 990.911 201.899 991.161C201.657 991.411 201.335 991.637 200.933 991.838C200.531 992.033 200.064 992.127 199.531 992.12C198.731 992.11 198.032 991.907 197.436 991.513C196.839 991.111 196.377 990.582 196.049 989.924C195.722 989.26 195.561 988.528 195.568 987.728C195.575 986.928 195.748 986.204 196.087 985.555C196.426 984.899 196.897 984.378 197.5 983.993C198.104 983.607 198.805 983.42 199.605 983.43C200.119 983.437 200.568 983.526 200.953 983.698C201.338 983.863 201.65 984.06 201.888 984.29C202.126 984.513 202.291 984.719 202.383 984.907L202.393 983.707L205.413 983.746L205.342 991.956L202.352 991.917ZM198.548 987.767C198.545 988.14 198.629 988.478 198.799 988.78C198.97 989.076 199.198 989.309 199.483 989.479C199.775 989.65 200.098 989.737 200.451 989.742C200.818 989.747 201.142 989.668 201.423 989.504C201.705 989.341 201.927 989.114 202.089 988.823C202.258 988.525 202.344 988.19 202.348 987.816C202.351 987.443 202.27 987.109 202.106 986.813C201.949 986.511 201.731 986.275 201.452 986.105C201.174 985.928 200.851 985.837 200.485 985.832C200.131 985.827 199.807 985.91 199.513 986.079C199.225 986.242 198.993 986.473 198.817 986.77C198.641 987.061 198.551 987.394 198.548 987.767ZM212.993 983.605C213.567 983.613 214.126 983.737 214.67 983.977C215.215 984.217 215.662 984.593 216.01 985.105C216.359 985.609 216.53 986.271 216.523 987.091L216.48 992.101L213.431 992.061L213.469 987.552C213.474 986.965 213.338 986.523 213.061 986.226C212.783 985.923 212.418 985.768 211.965 985.762C211.665 985.758 211.381 985.834 211.113 985.991C210.851 986.141 210.636 986.358 210.467 986.642C210.305 986.92 210.222 987.243 210.219 987.609L210.181 992.019L207.141 991.979L207.212 983.77L210.251 983.809L210.241 985.019C210.323 984.8 210.491 984.582 210.747 984.366C211.009 984.143 211.334 983.96 211.721 983.818C212.116 983.67 212.54 983.599 212.993 983.605ZM221.764 992.41C220.971 992.4 220.283 992.198 219.7 991.803C219.116 991.402 218.664 990.873 218.343 990.215C218.029 989.551 217.875 988.819 217.882 988.019C217.889 987.219 218.055 986.495 218.381 985.846C218.713 985.19 219.174 984.669 219.764 984.283C220.354 983.898 221.046 983.71 221.839 983.721C222.366 983.727 222.832 983.817 223.237 983.989C223.642 984.154 223.97 984.352 224.222 984.582C224.473 984.805 224.625 985.01 224.676 985.198L224.735 978.448L227.774 978.488L227.656 992.247L224.646 992.208L224.658 990.878C224.529 991.123 224.32 991.367 224.031 991.61C223.743 991.846 223.404 992.038 223.016 992.187C222.628 992.341 222.211 992.416 221.764 992.41ZM222.715 990.032C223.081 990.037 223.409 989.958 223.697 989.795C223.992 989.632 224.224 989.405 224.393 989.114C224.562 988.816 224.648 988.481 224.651 988.108C224.655 987.734 224.574 987.4 224.41 987.104C224.246 986.802 224.018 986.566 223.726 986.395C223.441 986.218 223.115 986.127 222.748 986.123C222.395 986.118 222.074 986.2 221.786 986.37C221.505 986.533 221.28 986.763 221.11 987.061C220.948 987.353 220.865 987.685 220.862 988.058C220.859 988.431 220.936 988.769 221.093 989.071C221.257 989.367 221.479 989.6 221.757 989.77C222.042 989.94 222.362 990.028 222.715 990.032ZM231.867 988.842C231.885 989.135 231.976 989.397 232.14 989.625C232.305 989.854 232.534 990.037 232.826 990.174C233.125 990.305 233.477 990.373 233.884 990.378C234.271 990.383 234.618 990.348 234.925 990.272C235.239 990.196 235.51 990.099 235.737 989.982C235.972 989.865 236.153 989.744 236.281 989.619L237.444 991.515C237.276 991.693 237.038 991.866 236.73 992.036C236.428 992.198 236.031 992.33 235.536 992.43C235.042 992.53 234.418 992.575 233.665 992.566C232.759 992.554 231.953 992.373 231.25 992.024C230.546 991.675 229.994 991.168 229.593 990.502C229.192 989.837 228.996 989.028 229.004 988.074C229.011 987.274 229.19 986.557 229.542 985.921C229.901 985.279 230.415 984.776 231.085 984.411C231.755 984.04 232.56 983.86 233.5 983.873C234.393 983.884 235.165 984.058 235.816 984.393C236.473 984.728 236.975 985.222 237.323 985.873C237.677 986.517 237.85 987.32 237.842 988.28C237.842 988.333 237.837 988.44 237.829 988.6C237.828 988.76 237.82 988.866 237.807 988.919L231.867 988.842ZM234.991 987.292C234.986 987.079 234.931 986.868 234.826 986.66C234.721 986.446 234.563 986.27 234.351 986.134C234.138 985.991 233.866 985.918 233.532 985.913C233.199 985.909 232.915 985.972 232.681 986.102C232.453 986.226 232.278 986.39 232.157 986.595C232.035 986.801 231.966 987.02 231.951 987.253L234.991 987.292ZM242.157 992.436L239.118 992.397L239.188 984.187L242.228 984.227L242.217 985.497L242.167 985.496C242.222 985.343 242.353 985.152 242.562 984.921C242.771 984.684 243.063 984.474 243.438 984.292C243.813 984.104 244.27 984.013 244.81 984.02C245.19 984.025 245.539 984.09 245.858 984.214C246.177 984.332 246.41 984.445 246.555 984.553L245.354 987.008C245.262 986.893 245.096 986.774 244.857 986.651C244.625 986.521 244.332 986.454 243.979 986.45C243.572 986.444 243.235 986.543 242.966 986.747C242.705 986.95 242.509 987.197 242.38 987.489C242.258 987.781 242.195 988.057 242.193 988.317L242.157 992.436ZM250.346 992.543L247.297 992.503L247.415 978.744L250.465 978.784L250.346 992.543ZM255.224 988.197C255.218 988.85 255.337 989.375 255.58 989.771C255.824 990.161 256.235 990.36 256.815 990.368C257.409 990.375 257.827 990.187 258.07 989.804C258.32 989.414 258.448 988.892 258.454 988.239L258.486 984.439L261.486 984.478L261.451 988.598C261.443 989.478 261.253 990.242 260.881 990.891C260.515 991.533 259.988 992.026 259.298 992.37C258.609 992.714 257.774 992.88 256.794 992.867C255.821 992.855 254.992 992.667 254.309 992.305C253.625 991.943 253.106 991.436 252.752 990.785C252.397 990.127 252.224 989.358 252.231 988.478L252.267 984.358L255.257 984.397L255.224 988.197ZM266.956 984.309C267.496 984.317 267.989 984.37 268.435 984.469C268.881 984.561 269.253 984.666 269.552 984.783C269.858 984.901 270.054 984.997 270.14 985.071L269.134 986.848C269.009 986.753 268.773 986.63 268.428 986.479C268.089 986.328 267.71 986.249 267.29 986.244C266.97 986.24 266.699 986.286 266.478 986.383C266.258 986.474 266.146 986.622 266.144 986.829C266.143 987.036 266.261 987.204 266.5 987.334C266.746 987.457 267.098 987.568 267.557 987.668C267.957 987.753 268.362 987.885 268.774 988.063C269.186 988.242 269.527 988.503 269.797 988.847C270.074 989.184 270.21 989.632 270.206 990.192C270.201 990.766 270.073 991.237 269.823 991.607C269.574 991.978 269.244 992.263 268.836 992.465C268.428 992.666 267.986 992.804 267.512 992.877C267.038 992.958 266.578 992.995 266.131 992.989C265.505 992.981 264.959 992.917 264.493 992.798C264.034 992.679 263.662 992.544 263.377 992.393C263.091 992.243 262.892 992.124 262.78 992.036L263.777 990.048C263.949 990.197 264.231 990.368 264.622 990.559C265.014 990.745 265.43 990.84 265.87 990.846C266.297 990.851 266.627 990.792 266.861 990.669C267.096 990.545 267.214 990.38 267.216 990.173C267.217 990.007 267.162 989.873 267.049 989.771C266.937 989.67 266.778 989.581 266.571 989.505C266.365 989.429 266.116 989.359 265.823 989.295C265.557 989.238 265.274 989.151 264.975 989.034C264.676 988.917 264.395 988.76 264.13 988.563C263.865 988.359 263.65 988.107 263.486 987.804C263.322 987.502 263.242 987.138 263.245 986.711C263.25 986.165 263.431 985.714 263.787 985.358C264.143 985.003 264.602 984.739 265.164 984.566C265.725 984.387 266.323 984.301 266.956 984.309ZM271.031 984.603L272.431 984.621L272.46 981.251L275.469 981.29L275.44 984.66L277.28 984.684L277.259 987.184L275.419 987.16L275.399 989.45C275.396 989.79 275.444 990.067 275.542 990.282C275.64 990.49 275.823 990.596 276.089 990.599C276.269 990.601 276.423 990.563 276.55 990.485C276.678 990.407 276.755 990.354 276.782 990.328L277.803 992.502C277.756 992.541 277.609 992.612 277.361 992.716C277.12 992.819 276.813 992.912 276.439 992.994C276.065 993.076 275.648 993.114 275.188 993.108C274.368 993.097 273.693 992.858 273.164 992.391C272.635 991.917 272.374 991.197 272.382 990.231L272.409 987.121L271.009 987.103L271.031 984.603Z" fill="white"/>
<path d="M153.28 111.28C153.307 111.44 153.32 111.6 153.32 111.76C153.347 111.893 153.36 112.053 153.36 112.24C153.36 112.56 153.267 112.853 153.08 113.12C153 113.253 152.893 113.387 152.76 113.52C152.627 113.627 152.467 113.72 152.28 113.8C151.613 114.173 150.907 114.307 150.16 114.2C149.787 114.093 149.453 113.92 149.16 113.68C149.107 113.627 149.067 113.6 149.04 113.6C149.013 113.573 148.987 113.533 148.96 113.48C148.933 113.453 148.907 113.427 148.88 113.4C148.853 113.347 148.813 113.307 148.76 113.28C148.627 113.147 148.52 113.027 148.44 112.92C148.36 112.787 148.28 112.653 148.2 112.52C148.147 112.387 148.08 112.267 148 112.16C147.947 112.027 147.88 111.893 147.8 111.76C147.747 111.653 147.693 111.56 147.64 111.48C147.587 111.373 147.547 111.267 147.52 111.16C147.413 110.92 147.347 110.707 147.32 110.52L146.48 108.56C144.64 108.56 142.8 108.573 140.96 108.6C139.147 108.6 137.32 108.587 135.48 108.56L134.64 110.52C134.587 110.627 134.547 110.733 134.52 110.84C134.52 110.947 134.493 111.053 134.44 111.16C134.387 111.267 134.333 111.373 134.28 111.48C134.253 111.56 134.213 111.653 134.16 111.76C134.08 111.893 134 112.027 133.92 112.16C133.867 112.267 133.8 112.387 133.72 112.52C133.667 112.653 133.6 112.787 133.52 112.92C133.44 113.027 133.333 113.147 133.2 113.28C133.147 113.307 133.107 113.347 133.08 113.4C133.053 113.427 133.027 113.453 133 113.48C132.973 113.533 132.947 113.573 132.92 113.6C132.893 113.6 132.853 113.627 132.8 113.68C132.507 113.92 132.173 114.093 131.8 114.2C131.053 114.307 130.347 114.173 129.68 113.8C129.493 113.72 129.333 113.627 129.2 113.52C129.067 113.387 128.96 113.253 128.88 113.12C128.693 112.853 128.6 112.56 128.6 112.24C128.6 112.053 128.6 111.893 128.6 111.76C128.627 111.6 128.653 111.44 128.68 111.28C128.733 111.04 128.8 110.8 128.88 110.56C128.96 110.32 129 110.2 129 110.2L137.32 89.72L137.56 89.08C137.613 88.92 137.68 88.7733 137.76 88.64C137.84 88.5067 137.907 88.3467 137.96 88.16C138.093 87.8133 138.24 87.5067 138.4 87.24C138.48 87.08 138.573 86.9333 138.68 86.8C138.787 86.6667 138.893 86.5333 139 86.4C139.16 86.1867 139.387 86.0133 139.68 85.88C140.053 85.7467 140.48 85.68 140.96 85.68C141.467 85.68 141.907 85.7467 142.28 85.88C142.573 86.0133 142.8 86.1867 142.96 86.4C143.147 86.64 143.347 86.92 143.56 87.24C143.72 87.5067 143.867 87.8133 144 88.16C144.053 88.3467 144.12 88.5067 144.2 88.64C144.28 88.7733 144.347 88.92 144.4 89.08L144.64 89.72L152.96 110.2C152.96 110.2 153 110.32 153.08 110.56C153.16 110.8 153.227 111.04 153.28 111.28ZM143.8 101.48C143.453 100.707 143.093 99.9067 142.72 99.08C142.373 98.2533 142 97.4133 141.6 96.56C141.493 96.32 141.387 96.08 141.28 95.84C141.173 95.5733 141.067 95.32 140.96 95.08C140.88 95.32 140.787 95.5733 140.68 95.84C140.573 96.08 140.467 96.32 140.36 96.56C139.96 97.4133 139.573 98.2533 139.2 99.08C138.853 99.9067 138.507 100.707 138.16 101.48L137.44 103.24H144.52L143.8 101.48ZM175.049 110.96C175.102 111.093 175.129 111.293 175.129 111.56C175.129 111.8 175.129 112 175.129 112.16C175.129 112.373 175.089 112.573 175.009 112.76C174.929 112.947 174.822 113.12 174.689 113.28C174.449 113.6 174.102 113.84 173.649 114C173.009 114.213 172.409 114.32 171.849 114.32C171.555 114.347 171.249 114.36 170.929 114.36C170.609 114.36 170.289 114.387 169.969 114.44H169.809C167.755 114.467 165.635 114.467 163.449 114.44C162.915 114.413 162.315 114.413 161.649 114.44C160.982 114.493 160.329 114.48 159.689 114.4C159.049 114.347 158.462 114.2 157.929 113.96C157.422 113.693 157.062 113.28 156.849 112.72C156.795 112.587 156.755 112.467 156.729 112.36C156.702 112.227 156.689 112.093 156.689 111.96C156.582 111.053 156.542 110.16 156.569 109.28C156.595 108.4 156.609 107.533 156.609 106.68L156.689 100.88V95.52C156.689 94.56 156.689 93.7067 156.689 92.96C156.715 92.2133 156.742 91.3867 156.769 90.48V90.28C156.795 90.0133 156.809 89.7467 156.809 89.48C156.835 89.2133 156.849 88.9467 156.849 88.68C156.902 88.0667 157.049 87.5467 157.289 87.12C157.449 86.72 157.729 86.4 158.129 86.16C158.475 85.92 158.889 85.8 159.369 85.8C159.555 85.8 159.729 85.8133 159.889 85.84C160.075 85.84 160.249 85.8533 160.409 85.88C160.569 85.9067 160.715 85.96 160.849 86.04C161.009 86.12 161.169 86.2267 161.329 86.36C161.489 86.5467 161.635 86.7733 161.769 87.04C161.875 87.3333 161.942 87.6267 161.969 87.92C161.995 88.1067 162.022 88.28 162.049 88.44C162.075 88.6 162.089 88.76 162.089 88.92C162.035 89.08 162.009 89.24 162.009 89.4C162.009 89.56 162.009 89.7067 162.009 89.84V90.56L161.849 109.4L169.769 109.48H171.649C171.809 109.48 171.982 109.493 172.169 109.52C172.355 109.52 172.542 109.533 172.729 109.56C172.942 109.587 173.129 109.613 173.289 109.64C173.449 109.667 173.609 109.707 173.769 109.76C174.062 109.84 174.302 109.973 174.489 110.16C174.782 110.427 174.969 110.693 175.049 110.96ZM196.807 110.96C196.86 111.093 196.887 111.293 196.887 111.56C196.887 111.8 196.887 112 196.887 112.16C196.887 112.373 196.847 112.573 196.767 112.76C196.687 112.947 196.58 113.12 196.447 113.28C196.207 113.6 195.86 113.84 195.407 114C194.767 114.213 194.167 114.32 193.607 114.32C193.313 114.347 193.007 114.36 192.687 114.36C192.367 114.36 192.047 114.387 191.727 114.44H191.567C189.513 114.467 187.393 114.467 185.207 114.44C184.673 114.413 184.073 114.413 183.407 114.44C182.74 114.493 182.087 114.48 181.447 114.4C180.807 114.347 180.22 114.2 179.687 113.96C179.18 113.693 178.82 113.28 178.607 112.72C178.553 112.587 178.513 112.467 178.487 112.36C178.46 112.227 178.447 112.093 178.447 111.96C178.34 111.053 178.3 110.16 178.327 109.28C178.353 108.4 178.367 107.533 178.367 106.68L178.447 100.88V95.52C178.447 94.56 178.447 93.7067 178.447 92.96C178.473 92.2133 178.5 91.3867 178.527 90.48V90.28C178.553 90.0133 178.567 89.7467 178.567 89.48C178.593 89.2133 178.607 88.9467 178.607 88.68C178.66 88.0667 178.807 87.5467 179.047 87.12C179.207 86.72 179.487 86.4 179.887 86.16C180.233 85.92 180.647 85.8 181.127 85.8C181.313 85.8 181.487 85.8133 181.647 85.84C181.833 85.84 182.007 85.8533 182.167 85.88C182.327 85.9067 182.473 85.96 182.607 86.04C182.767 86.12 182.927 86.2267 183.087 86.36C183.247 86.5467 183.393 86.7733 183.527 87.04C183.633 87.3333 183.7 87.6267 183.727 87.92C183.753 88.1067 183.78 88.28 183.807 88.44C183.833 88.6 183.847 88.76 183.847 88.92C183.793 89.08 183.767 89.24 183.767 89.4C183.767 89.56 183.767 89.7067 183.767 89.84V90.56L183.607 109.4L191.527 109.48H193.407C193.567 109.48 193.74 109.493 193.927 109.52C194.113 109.52 194.3 109.533 194.487 109.56C194.7 109.587 194.887 109.613 195.047 109.64C195.207 109.667 195.367 109.707 195.527 109.76C195.82 109.84 196.06 109.973 196.247 110.16C196.54 110.427 196.727 110.693 196.807 110.96ZM231.515 97.92C231.568 98.8 231.555 99.7067 231.475 100.64C231.422 101.573 231.328 102.48 231.195 103.36C230.928 104.88 230.435 106.36 229.715 107.8C228.995 109.24 227.942 110.467 226.555 111.48C225.115 112.547 223.475 113.28 221.635 113.68C219.795 114.053 217.968 114.28 216.155 114.36C215.542 114.413 214.915 114.427 214.275 114.4C213.662 114.4 213.062 114.333 212.475 114.2C211.995 114.12 211.635 113.973 211.395 113.76C211.262 113.68 211.155 113.573 211.075 113.44C210.995 113.307 210.928 113.173 210.875 113.04C210.795 112.907 210.728 112.773 210.675 112.64C210.648 112.48 210.608 112.32 210.555 112.16C210.528 112.027 210.502 111.907 210.475 111.8C210.475 111.667 210.475 111.547 210.475 111.44V88.6C210.475 88.4133 210.475 88.24 210.475 88.08C210.475 87.92 210.502 87.76 210.555 87.6C210.608 87.2267 210.688 86.92 210.795 86.68C210.902 86.36 211.048 86.1333 211.235 86C211.395 85.8667 211.555 85.7733 211.715 85.72C211.875 85.64 212.022 85.5733 212.155 85.52C212.315 85.4667 212.475 85.4667 212.635 85.52C212.822 85.5467 213.022 85.5067 213.235 85.4L219.915 85.56C221.675 85.6133 223.248 86.0267 224.635 86.8C226.022 87.5467 227.208 88.5067 228.195 89.68C229.182 90.8533 229.955 92.1733 230.515 93.64C231.075 95.08 231.408 96.5067 231.515 97.92ZM224.075 105.52C224.582 104.72 224.955 103.8 225.195 102.76C225.435 101.72 225.542 100.667 225.515 99.6C225.488 98.5067 225.342 97.4533 225.075 96.44C224.808 95.4 224.435 94.48 223.955 93.68C223.582 93.0933 223.102 92.6133 222.515 92.24C221.928 91.8667 221.275 91.5867 220.555 91.4C219.835 91.1867 219.062 91.04 218.235 90.96C217.435 90.88 216.648 90.84 215.875 90.84C215.902 91.6133 215.915 92.36 215.915 93.08C215.915 93.8 215.915 94.56 215.915 95.36C215.888 96.32 215.875 97.2533 215.875 98.16C215.875 99.0667 215.875 99.9467 215.875 100.8V108.96C216.702 108.933 217.488 108.893 218.235 108.84C219.008 108.76 219.742 108.6 220.435 108.36C221.155 108.12 221.808 107.787 222.395 107.36C223.008 106.907 223.568 106.293 224.075 105.52ZM240.291 90.48L240.211 96.76H241.811C242.904 96.7333 243.878 96.72 244.731 96.72C245.584 96.72 246.531 96.7333 247.571 96.76H247.771C248.091 96.76 248.398 96.7733 248.691 96.8C249.011 96.8 249.318 96.8 249.611 96.8C249.931 96.8267 250.238 96.88 250.531 96.96C250.824 97.0133 251.118 97.08 251.411 97.16C251.864 97.32 252.238 97.56 252.531 97.88C252.798 98.2267 252.931 98.6133 252.931 99.04C252.931 99.1733 252.931 99.3333 252.931 99.52C252.931 99.68 252.904 99.8267 252.851 99.96C252.798 100.253 252.624 100.52 252.331 100.76C252.198 100.947 251.944 101.08 251.571 101.16C251.224 101.267 250.878 101.333 250.531 101.36C250.158 101.44 249.784 101.48 249.411 101.48H247.531L240.131 101.52L240.051 109.36L248.011 109.44H249.891C250.104 109.44 250.304 109.44 250.491 109.44C250.678 109.44 250.851 109.453 251.011 109.48C251.224 109.533 251.411 109.573 251.571 109.6C251.758 109.6 251.931 109.627 252.091 109.68C252.411 109.787 252.678 109.933 252.891 110.12C253.158 110.387 253.331 110.667 253.411 110.96C253.438 111.093 253.451 111.24 253.451 111.4C253.478 111.533 253.478 111.68 253.451 111.84C253.451 112.267 253.318 112.653 253.051 113C252.731 113.373 252.358 113.613 251.931 113.72C251.371 113.96 250.758 114.08 250.091 114.08C249.798 114.107 249.491 114.12 249.171 114.12C248.851 114.12 248.544 114.133 248.251 114.16H248.011C245.931 114.213 243.771 114.213 241.531 114.16C240.998 114.16 240.571 114.147 240.251 114.12C239.931 114.12 239.638 114.12 239.371 114.12C239.131 114.12 238.878 114.12 238.611 114.12C238.344 114.12 237.998 114.12 237.571 114.12C236.958 114.173 236.451 114.067 236.051 113.8C235.758 113.613 235.531 113.36 235.371 113.04C235.291 112.96 235.251 112.88 235.251 112.8C235.224 112.747 235.198 112.707 235.171 112.68C235.144 112.653 235.118 112.613 235.091 112.56C235.038 112.427 234.998 112.293 234.971 112.16C234.944 112 234.931 111.853 234.931 111.72C234.904 111.587 234.878 111.453 234.851 111.32C234.851 111.187 234.838 111.053 234.811 110.92V110.28C234.811 110.173 234.811 110.067 234.811 109.96C234.838 109.853 234.851 109.747 234.851 109.64V106.52L234.931 100.76V95.44C234.931 94.48 234.931 93.6267 234.931 92.88C234.958 92.1333 234.984 91.32 235.011 90.44V90.24C235.038 89.9467 235.051 89.68 235.051 89.44C235.078 89.1733 235.091 88.9067 235.091 88.64C235.118 88.1067 235.264 87.5867 235.531 87.08C235.638 86.8667 235.744 86.68 235.851 86.52C235.984 86.36 236.158 86.2267 236.371 86.12C236.771 85.88 237.184 85.76 237.611 85.76C237.824 85.76 237.984 85.7733 238.091 85.8V85.76C238.571 85.76 238.958 85.76 239.251 85.76C239.544 85.76 239.824 85.76 240.091 85.76C240.384 85.76 240.691 85.76 241.011 85.76C241.331 85.7333 241.771 85.72 242.331 85.72C243.398 85.6933 244.411 85.68 245.371 85.68C246.331 85.68 247.318 85.6933 248.331 85.72H248.491C248.784 85.7467 249.091 85.76 249.411 85.76C249.731 85.76 250.038 85.7733 250.331 85.8C250.624 85.8 250.918 85.84 251.211 85.92C251.504 85.9733 251.798 86.0533 252.091 86.16C252.544 86.2933 252.918 86.52 253.211 86.84C253.451 87.2133 253.571 87.5867 253.571 87.96C253.571 88.12 253.571 88.28 253.571 88.44C253.571 88.5733 253.544 88.7067 253.491 88.84C253.464 89.1067 253.304 89.3867 253.011 89.68C252.904 89.7333 252.784 89.8 252.651 89.88C252.544 89.96 252.411 90.0267 252.251 90.08C252.091 90.1333 251.918 90.1733 251.731 90.2C251.571 90.2 251.411 90.2133 251.251 90.24C251.038 90.2933 250.838 90.32 250.651 90.32C250.491 90.32 250.304 90.32 250.091 90.32H248.291L240.291 90.36V90.48ZM277.484 102.36C277.617 102.733 277.711 103.16 277.764 103.64C277.844 104.093 277.884 104.56 277.884 105.04C277.884 105.52 277.844 106 277.764 106.48C277.711 106.933 277.631 107.333 277.524 107.68C277.097 109.173 276.244 110.427 274.964 111.44C273.684 112.427 272.217 113.147 270.564 113.6C268.937 114.053 267.244 114.213 265.484 114.08C263.751 113.947 262.204 113.507 260.844 112.76C259.991 112.28 259.257 111.693 258.644 111C258.031 110.307 257.511 109.533 257.084 108.68C256.924 108.387 256.817 108.053 256.764 107.68C256.737 107.28 256.777 106.907 256.884 106.56C256.991 106.187 257.164 105.867 257.404 105.6C257.644 105.307 257.977 105.107 258.404 105C258.671 104.947 258.964 104.92 259.284 104.92C259.631 104.92 259.964 104.973 260.284 105.08C260.604 105.16 260.897 105.307 261.164 105.52C261.431 105.707 261.644 105.973 261.804 106.32C262.097 106.88 262.511 107.4 263.044 107.88C263.604 108.333 264.191 108.707 264.804 109C265.684 109.293 266.564 109.413 267.444 109.36C268.351 109.307 269.164 109.107 269.884 108.76C270.631 108.413 271.231 107.947 271.684 107.36C272.137 106.747 272.364 106.053 272.364 105.28C272.364 104.64 272.271 104.12 272.084 103.72C271.897 103.293 271.631 102.947 271.284 102.68C270.964 102.387 270.564 102.147 270.084 101.96C269.631 101.773 269.124 101.613 268.564 101.48C267.924 101.347 267.271 101.253 266.604 101.2C265.964 101.147 265.311 101.08 264.644 101C263.977 100.92 263.324 100.813 262.684 100.68C262.044 100.547 261.417 100.347 260.804 100.08C259.577 99.5733 258.644 98.8 258.004 97.76C257.364 96.72 256.977 95.6 256.844 94.4C256.737 93.2 256.884 92.0133 257.284 90.84C257.684 89.64 258.324 88.6133 259.204 87.76C260.057 86.9867 261.071 86.44 262.244 86.12C263.444 85.7733 264.764 85.5733 266.204 85.52C267.004 85.4933 267.804 85.52 268.604 85.6C269.431 85.68 270.217 85.8133 270.964 86C271.737 86.1867 272.444 86.4267 273.084 86.72C273.751 87.0133 274.324 87.36 274.804 87.76C275.151 88.0267 275.497 88.3867 275.844 88.84C276.191 89.2667 276.457 89.7333 276.644 90.24C276.831 90.72 276.884 91.1867 276.804 91.64C276.751 92.0933 276.471 92.48 275.964 92.8C275.537 93.0667 275.124 93.1867 274.724 93.16C274.351 93.1067 273.991 92.9867 273.644 92.8C273.297 92.5867 272.964 92.3467 272.644 92.08C272.324 91.8133 272.031 91.5733 271.764 91.36C271.044 90.8267 270.151 90.4667 269.084 90.28C268.017 90.0933 267.017 90.0533 266.084 90.16C265.497 90.24 264.951 90.3733 264.444 90.56C263.937 90.7467 263.497 91 263.124 91.32C262.777 91.64 262.497 92.04 262.284 92.52C262.097 92.9733 262.031 93.4933 262.084 94.08C262.111 94.5067 262.231 94.8667 262.444 95.16C262.684 95.4533 262.964 95.6933 263.284 95.88C263.631 96.0667 264.004 96.2133 264.404 96.32C264.804 96.4267 265.204 96.5067 265.604 96.56C266.804 96.72 268.004 96.84 269.204 96.92C270.404 97 271.577 97.2667 272.724 97.72C273.897 98.1733 274.897 98.7867 275.724 99.56C276.551 100.333 277.137 101.267 277.484 102.36ZM301.578 86.92C301.872 87.2667 302.018 87.6267 302.018 88C302.018 88.16 302.005 88.3333 301.978 88.52C301.978 88.68 301.965 88.8267 301.938 88.96C301.858 89.2533 301.685 89.5333 301.418 89.8C301.205 89.96 300.912 90.08 300.538 90.16C300.352 90.2133 300.165 90.2533 299.978 90.28C299.792 90.3067 299.592 90.3467 299.378 90.4C299.192 90.4267 299.005 90.44 298.818 90.44C298.632 90.44 298.432 90.44 298.218 90.44H296.178C295.698 90.4667 295.218 90.48 294.738 90.48C294.285 90.48 293.832 90.48 293.378 90.48C293.405 91.3067 293.418 92.2 293.418 93.16C293.418 94.0933 293.405 95.1867 293.378 96.44C293.378 97.6933 293.365 99.1467 293.338 100.8C293.338 102.453 293.338 104.373 293.338 106.56V109.6C293.338 109.867 293.352 110.067 293.378 110.2C293.378 110.307 293.378 110.413 293.378 110.52C293.378 110.6 293.365 110.707 293.338 110.84C293.285 111.08 293.245 111.36 293.218 111.68C293.218 111.813 293.205 111.947 293.178 112.08C293.152 112.187 293.112 112.307 293.058 112.44C292.952 112.547 292.898 112.627 292.898 112.68L292.778 112.92C292.645 113.187 292.392 113.44 292.018 113.68C291.432 113.973 290.778 114.04 290.058 113.88C289.605 113.827 289.258 113.707 289.018 113.52C288.778 113.28 288.605 113.04 288.498 112.8C288.338 112.507 288.245 112.227 288.218 111.96C288.138 111.72 288.098 111.467 288.098 111.2V90.64C287.938 90.64 287.605 90.64 287.098 90.64C286.592 90.64 286.045 90.64 285.458 90.64C284.898 90.6133 284.365 90.5867 283.858 90.56C283.352 90.5333 283.005 90.5067 282.818 90.48C282.658 90.4533 282.405 90.4133 282.058 90.36C281.738 90.3067 281.472 90.2533 281.258 90.2C280.698 90.04 280.258 89.7867 279.938 89.44C279.645 89.0933 279.498 88.7067 279.498 88.28C279.498 88.12 279.498 87.96 279.498 87.8C279.498 87.64 279.525 87.4933 279.578 87.36C279.658 87.04 279.872 86.7733 280.218 86.56C280.325 86.48 280.485 86.3867 280.698 86.28C280.938 86.1467 281.165 86.0533 281.378 86C281.698 85.8933 282.098 85.8133 282.578 85.76C282.792 85.7333 283.005 85.72 283.218 85.72C283.432 85.72 283.658 85.72 283.898 85.72C284.832 85.72 285.712 85.72 286.538 85.72C287.392 85.72 288.285 85.7067 289.218 85.68C290.765 85.6533 292.298 85.6533 293.818 85.68C295.365 85.68 296.898 85.7067 298.418 85.76C298.765 85.7867 299.098 85.8267 299.418 85.88C299.738 85.9333 300.058 86.0267 300.378 86.16C300.618 86.24 300.845 86.3467 301.058 86.48C301.272 86.5867 301.445 86.7333 301.578 86.92ZM304.84 109.76L304.88 106.6L304.92 100.72C304.947 99.8667 304.96 98.9867 304.96 98.08C304.96 97.1733 304.96 96.24 304.96 95.28C304.96 94.32 304.96 93.4667 304.96 92.72C304.96 91.9733 304.987 91.1333 305.04 90.2V90.04C305.067 89.7733 305.08 89.5067 305.08 89.24C305.107 88.9467 305.12 88.6533 305.12 88.36C305.147 87.88 305.293 87.36 305.56 86.8C305.747 86.4267 306.027 86.1067 306.4 85.84C306.827 85.6267 307.24 85.52 307.64 85.52C307.853 85.52 308.04 85.5333 308.2 85.56C308.387 85.56 308.56 85.5733 308.72 85.6C309.067 85.6533 309.373 85.8133 309.64 86.08C309.8 86.2133 309.947 86.4267 310.08 86.72C310.133 86.88 310.173 87.04 310.2 87.2C310.253 87.3333 310.293 87.48 310.32 87.64C310.347 87.8267 310.36 88 310.36 88.16C310.387 88.32 310.4 88.48 310.4 88.64C310.4 88.8267 310.387 89 310.36 89.16C310.36 89.2933 310.36 89.44 310.36 89.6V90.28L310.12 111.04V111.44C310.12 111.52 310.107 111.627 310.08 111.76C310.08 111.867 310.067 112 310.04 112.16C309.987 112.293 309.933 112.44 309.88 112.6C309.853 112.733 309.813 112.88 309.76 113.04C309.68 113.173 309.587 113.307 309.48 113.44C309.4 113.547 309.293 113.653 309.16 113.76C308.947 113.973 308.6 114.12 308.12 114.2C307.4 114.36 306.72 114.293 306.08 114C305.76 113.787 305.533 113.52 305.4 113.2C305.32 113.12 305.28 113.04 305.28 112.96C305.253 112.907 305.227 112.867 305.2 112.84C305.173 112.813 305.147 112.773 305.12 112.72C305.067 112.587 305.027 112.453 305 112.32C304.973 112.16 304.96 112 304.96 111.84C304.933 111.707 304.907 111.573 304.88 111.44C304.88 111.307 304.867 111.173 304.84 111.04C304.813 110.827 304.813 110.6 304.84 110.36V109.76ZM336.571 110.96C336.544 111.413 336.478 111.893 336.371 112.4C336.291 112.907 336.038 113.32 335.611 113.64C335.291 113.907 334.931 114.067 334.531 114.12C334.131 114.173 333.731 114.147 333.331 114.04C332.958 113.96 332.598 113.827 332.251 113.64C331.904 113.427 331.624 113.173 331.411 112.88C330.504 111.76 329.664 110.613 328.891 109.44C328.144 108.24 327.384 107.04 326.611 105.84L323.251 100.76C322.798 100.04 322.318 99.24 321.811 98.36C321.304 97.4533 320.784 96.6133 320.251 95.84L320.131 111.12V111.48C320.131 111.907 320.051 112.333 319.891 112.76C319.758 113.16 319.518 113.507 319.171 113.8C318.904 114.013 318.558 114.16 318.131 114.24C317.464 114.373 316.904 114.333 316.451 114.12C316.024 113.907 315.678 113.613 315.411 113.24C315.171 112.867 314.998 112.44 314.891 111.96C314.811 111.453 314.798 110.96 314.851 110.48V109.8L314.931 106.68L314.971 100.88C314.998 100.027 315.011 99.16 315.011 98.28C315.011 97.3733 315.011 96.4533 315.011 95.52C314.984 94.3733 314.984 93.16 315.011 91.88C315.064 90.6 315.118 89.4 315.171 88.28C315.224 87.6667 315.371 87.1467 315.611 86.72C315.718 86.3467 315.998 86.0267 316.451 85.76C316.744 85.5733 317.118 85.4533 317.571 85.4C318.051 85.3467 318.464 85.36 318.811 85.44C318.944 85.4933 319.078 85.56 319.211 85.64C319.344 85.6933 319.478 85.76 319.611 85.84C319.744 85.9467 319.864 86.0533 319.971 86.16C320.104 86.2667 320.224 86.3867 320.331 86.52C320.464 86.6533 320.584 86.8 320.691 86.96C320.798 87.0933 320.904 87.2267 321.011 87.36C321.091 87.52 321.171 87.6667 321.251 87.8C321.331 87.9333 321.424 88.0667 321.531 88.2L321.971 88.84L331.211 103.4V100.76C331.211 99.9067 331.198 99.04 331.171 98.16C331.171 97.2533 331.158 96.32 331.131 95.36C331.131 94.24 331.131 93.04 331.131 91.76C331.158 90.48 331.198 89.28 331.251 88.16C331.251 87.7067 331.384 87.1867 331.651 86.6C331.784 86.2533 332.011 85.9733 332.331 85.76C332.651 85.5467 333.011 85.4 333.411 85.32C333.811 85.24 334.211 85.24 334.611 85.32C335.011 85.4 335.358 85.56 335.651 85.8C335.731 85.88 335.811 85.9733 335.891 86.08C335.971 86.1867 336.038 86.3067 336.091 86.44C336.224 86.7867 336.304 87.0933 336.331 87.36C336.411 87.7333 336.451 88.0667 336.451 88.36C336.451 91.6933 336.451 95.0933 336.451 98.56C336.478 102.027 336.504 105.427 336.531 108.76C336.531 109.133 336.544 109.507 336.571 109.88C336.598 110.227 336.598 110.587 336.571 110.96ZM364.491 111.28C364.518 111.44 364.531 111.6 364.531 111.76C364.558 111.893 364.571 112.053 364.571 112.24C364.571 112.56 364.478 112.853 364.291 113.12C364.211 113.253 364.104 113.387 363.971 113.52C363.838 113.627 363.678 113.72 363.491 113.8C362.824 114.173 362.118 114.307 361.371 114.2C360.998 114.093 360.664 113.92 360.371 113.68C360.318 113.627 360.278 113.6 360.251 113.6C360.224 113.573 360.198 113.533 360.171 113.48C360.144 113.453 360.118 113.427 360.091 113.4C360.064 113.347 360.024 113.307 359.971 113.28C359.838 113.147 359.731 113.027 359.651 112.92C359.571 112.787 359.491 112.653 359.411 112.52C359.358 112.387 359.291 112.267 359.211 112.16C359.158 112.027 359.091 111.893 359.011 111.76C358.958 111.653 358.904 111.56 358.851 111.48C358.798 111.373 358.758 111.267 358.731 111.16C358.624 110.92 358.558 110.707 358.531 110.52L357.691 108.56C355.851 108.56 354.011 108.573 352.171 108.6C350.358 108.6 348.531 108.587 346.691 108.56L345.851 110.52C345.798 110.627 345.758 110.733 345.731 110.84C345.731 110.947 345.704 111.053 345.651 111.16C345.598 111.267 345.544 111.373 345.491 111.48C345.464 111.56 345.424 111.653 345.371 111.76C345.291 111.893 345.211 112.027 345.131 112.16C345.078 112.267 345.011 112.387 344.931 112.52C344.878 112.653 344.811 112.787 344.731 112.92C344.651 113.027 344.544 113.147 344.411 113.28C344.358 113.307 344.318 113.347 344.291 113.4C344.264 113.427 344.238 113.453 344.211 113.48C344.184 113.533 344.158 113.573 344.131 113.6C344.104 113.6 344.064 113.627 344.011 113.68C343.718 113.92 343.384 114.093 343.011 114.2C342.264 114.307 341.558 114.173 340.891 113.8C340.704 113.72 340.544 113.627 340.411 113.52C340.278 113.387 340.171 113.253 340.091 113.12C339.904 112.853 339.811 112.56 339.811 112.24C339.811 112.053 339.811 111.893 339.811 111.76C339.838 111.6 339.864 111.44 339.891 111.28C339.944 111.04 340.011 110.8 340.091 110.56C340.171 110.32 340.211 110.2 340.211 110.2L348.531 89.72L348.771 89.08C348.824 88.92 348.891 88.7733 348.971 88.64C349.051 88.5067 349.118 88.3467 349.171 88.16C349.304 87.8133 349.451 87.5067 349.611 87.24C349.691 87.08 349.784 86.9333 349.891 86.8C349.998 86.6667 350.104 86.5333 350.211 86.4C350.371 86.1867 350.598 86.0133 350.891 85.88C351.264 85.7467 351.691 85.68 352.171 85.68C352.678 85.68 353.118 85.7467 353.491 85.88C353.784 86.0133 354.011 86.1867 354.171 86.4C354.358 86.64 354.558 86.92 354.771 87.24C354.931 87.5067 355.078 87.8133 355.211 88.16C355.264 88.3467 355.331 88.5067 355.411 88.64C355.491 88.7733 355.558 88.92 355.611 89.08L355.851 89.72L364.171 110.2C364.171 110.2 364.211 110.32 364.291 110.56C364.371 110.8 364.438 111.04 364.491 111.28ZM355.011 101.48C354.664 100.707 354.304 99.9067 353.931 99.08C353.584 98.2533 353.211 97.4133 352.811 96.56C352.704 96.32 352.598 96.08 352.491 95.84C352.384 95.5733 352.278 95.32 352.171 95.08C352.091 95.32 351.998 95.5733 351.891 95.84C351.784 96.08 351.678 96.32 351.571 96.56C351.171 97.4133 350.784 98.2533 350.411 99.08C350.064 99.9067 349.718 100.707 349.371 101.48L348.651 103.24H355.731L355.011 101.48ZM384.664 86.92C384.958 87.2667 385.104 87.6267 385.104 88C385.104 88.16 385.091 88.3333 385.064 88.52C385.064 88.68 385.051 88.8267 385.024 88.96C384.944 89.2533 384.771 89.5333 384.504 89.8C384.291 89.96 383.998 90.08 383.624 90.16C383.438 90.2133 383.251 90.2533 383.064 90.28C382.878 90.3067 382.678 90.3467 382.464 90.4C382.278 90.4267 382.091 90.44 381.904 90.44C381.718 90.44 381.518 90.44 381.304 90.44H379.264C378.784 90.4667 378.304 90.48 377.824 90.48C377.371 90.48 376.918 90.48 376.464 90.48C376.491 91.3067 376.504 92.2 376.504 93.16C376.504 94.0933 376.491 95.1867 376.464 96.44C376.464 97.6933 376.451 99.1467 376.424 100.8C376.424 102.453 376.424 104.373 376.424 106.56V109.6C376.424 109.867 376.438 110.067 376.464 110.2C376.464 110.307 376.464 110.413 376.464 110.52C376.464 110.6 376.451 110.707 376.424 110.84C376.371 111.08 376.331 111.36 376.304 111.68C376.304 111.813 376.291 111.947 376.264 112.08C376.238 112.187 376.198 112.307 376.144 112.44C376.038 112.547 375.984 112.627 375.984 112.68L375.864 112.92C375.731 113.187 375.478 113.44 375.104 113.68C374.518 113.973 373.864 114.04 373.144 113.88C372.691 113.827 372.344 113.707 372.104 113.52C371.864 113.28 371.691 113.04 371.584 112.8C371.424 112.507 371.331 112.227 371.304 111.96C371.224 111.72 371.184 111.467 371.184 111.2V90.64C371.024 90.64 370.691 90.64 370.184 90.64C369.678 90.64 369.131 90.64 368.544 90.64C367.984 90.6133 367.451 90.5867 366.944 90.56C366.438 90.5333 366.091 90.5067 365.904 90.48C365.744 90.4533 365.491 90.4133 365.144 90.36C364.824 90.3067 364.558 90.2533 364.344 90.2C363.784 90.04 363.344 89.7867 363.024 89.44C362.731 89.0933 362.584 88.7067 362.584 88.28C362.584 88.12 362.584 87.96 362.584 87.8C362.584 87.64 362.611 87.4933 362.664 87.36C362.744 87.04 362.958 86.7733 363.304 86.56C363.411 86.48 363.571 86.3867 363.784 86.28C364.024 86.1467 364.251 86.0533 364.464 86C364.784 85.8933 365.184 85.8133 365.664 85.76C365.878 85.7333 366.091 85.72 366.304 85.72C366.518 85.72 366.744 85.72 366.984 85.72C367.918 85.72 368.798 85.72 369.624 85.72C370.478 85.72 371.371 85.7067 372.304 85.68C373.851 85.6533 375.384 85.6533 376.904 85.68C378.451 85.68 379.984 85.7067 381.504 85.76C381.851 85.7867 382.184 85.8267 382.504 85.88C382.824 85.9333 383.144 86.0267 383.464 86.16C383.704 86.24 383.931 86.3467 384.144 86.48C384.358 86.5867 384.531 86.7333 384.664 86.92ZM387.926 109.76L387.966 106.6L388.006 100.72C388.033 99.8667 388.046 98.9867 388.046 98.08C388.046 97.1733 388.046 96.24 388.046 95.28C388.046 94.32 388.046 93.4667 388.046 92.72C388.046 91.9733 388.073 91.1333 388.126 90.2V90.04C388.153 89.7733 388.166 89.5067 388.166 89.24C388.193 88.9467 388.206 88.6533 388.206 88.36C388.233 87.88 388.379 87.36 388.646 86.8C388.833 86.4267 389.113 86.1067 389.486 85.84C389.913 85.6267 390.326 85.52 390.726 85.52C390.939 85.52 391.126 85.5333 391.286 85.56C391.473 85.56 391.646 85.5733 391.806 85.6C392.153 85.6533 392.459 85.8133 392.726 86.08C392.886 86.2133 393.033 86.4267 393.166 86.72C393.219 86.88 393.259 87.04 393.286 87.2C393.339 87.3333 393.379 87.48 393.406 87.64C393.433 87.8267 393.446 88 393.446 88.16C393.473 88.32 393.486 88.48 393.486 88.64C393.486 88.8267 393.473 89 393.446 89.16C393.446 89.2933 393.446 89.44 393.446 89.6V90.28L393.206 111.04V111.44C393.206 111.52 393.193 111.627 393.166 111.76C393.166 111.867 393.153 112 393.126 112.16C393.073 112.293 393.019 112.44 392.966 112.6C392.939 112.733 392.899 112.88 392.846 113.04C392.766 113.173 392.673 113.307 392.566 113.44C392.486 113.547 392.379 113.653 392.246 113.76C392.033 113.973 391.686 114.12 391.206 114.2C390.486 114.36 389.806 114.293 389.166 114C388.846 113.787 388.619 113.52 388.486 113.2C388.406 113.12 388.366 113.04 388.366 112.96C388.339 112.907 388.313 112.867 388.286 112.84C388.259 112.813 388.233 112.773 388.206 112.72C388.153 112.587 388.113 112.453 388.086 112.32C388.059 112.16 388.046 112 388.046 111.84C388.019 111.707 387.993 111.573 387.966 111.44C387.966 111.307 387.953 111.173 387.926 111.04C387.899 110.827 387.899 110.6 387.926 110.36V109.76ZM404.977 86.64C406.764 85.9733 408.377 85.68 409.817 85.76C411.284 85.84 412.59 86.2133 413.737 86.88C414.884 87.52 415.857 88.3867 416.657 89.48C417.484 90.5733 418.15 91.8 418.657 93.16C419.057 94.1733 419.364 95.24 419.577 96.36C419.79 97.48 419.91 98.6 419.937 99.72C419.99 100.813 419.95 101.893 419.817 102.96C419.71 104.027 419.524 105.013 419.257 105.92C419.097 106.533 418.91 107.093 418.697 107.6C418.484 108.107 418.23 108.613 417.937 109.12C417.27 110.267 416.404 111.2 415.337 111.92C414.297 112.64 413.15 113.147 411.897 113.44C411.044 113.653 410.164 113.76 409.257 113.76C408.35 113.733 407.457 113.613 406.577 113.4C405.697 113.16 404.844 112.827 404.017 112.4C403.217 111.947 402.484 111.387 401.817 110.72C400.99 109.92 400.31 109 399.777 107.96C399.244 106.893 398.83 105.787 398.537 104.64C398.244 103.467 398.057 102.293 397.977 101.12C397.897 99.9467 397.897 98.8267 397.977 97.76C398.057 96.7733 398.244 95.72 398.537 94.6C398.857 93.48 399.31 92.4 399.897 91.36C400.484 90.32 401.19 89.3867 402.017 88.56C402.87 87.7067 403.857 87.0667 404.977 86.64ZM414.337 103.76C414.657 102.507 414.79 101.093 414.737 99.52C414.684 97.9467 414.43 96.4667 413.977 95.08C413.684 94.2267 413.31 93.48 412.857 92.84C412.43 92.1733 411.91 91.6667 411.297 91.32C410.71 90.9733 410.017 90.8 409.217 90.8C408.417 90.8 407.524 91.04 406.537 91.52C405.95 91.8133 405.444 92.2133 405.017 92.72C404.617 93.2267 404.284 93.8 404.017 94.44C403.777 95.08 403.577 95.7467 403.417 96.44C403.284 97.1333 403.204 97.8 403.177 98.44C403.124 99.1333 403.11 99.8667 403.137 100.64C403.164 101.387 403.244 102.147 403.377 102.92C403.537 103.667 403.75 104.387 404.017 105.08C404.284 105.747 404.644 106.347 405.097 106.88C405.79 107.68 406.59 108.24 407.497 108.56C408.43 108.853 409.35 108.893 410.257 108.68C411.724 108.36 412.844 107.387 413.617 105.76C413.937 105.173 414.177 104.507 414.337 103.76ZM444.969 110.96C444.943 111.413 444.876 111.893 444.769 112.4C444.689 112.907 444.436 113.32 444.009 113.64C443.689 113.907 443.329 114.067 442.929 114.12C442.529 114.173 442.129 114.147 441.729 114.04C441.356 113.96 440.996 113.827 440.649 113.64C440.303 113.427 440.023 113.173 439.809 112.88C438.903 111.76 438.063 110.613 437.289 109.44C436.543 108.24 435.783 107.04 435.009 105.84L431.649 100.76C431.196 100.04 430.716 99.24 430.209 98.36C429.703 97.4533 429.183 96.6133 428.649 95.84L428.529 111.12V111.48C428.529 111.907 428.449 112.333 428.289 112.76C428.156 113.16 427.916 113.507 427.569 113.8C427.303 114.013 426.956 114.16 426.529 114.24C425.863 114.373 425.303 114.333 424.849 114.12C424.423 113.907 424.076 113.613 423.809 113.24C423.569 112.867 423.396 112.44 423.289 111.96C423.209 111.453 423.196 110.96 423.249 110.48V109.8L423.329 106.68L423.369 100.88C423.396 100.027 423.409 99.16 423.409 98.28C423.409 97.3733 423.409 96.4533 423.409 95.52C423.383 94.3733 423.383 93.16 423.409 91.88C423.463 90.6 423.516 89.4 423.569 88.28C423.623 87.6667 423.769 87.1467 424.009 86.72C424.116 86.3467 424.396 86.0267 424.849 85.76C425.143 85.5733 425.516 85.4533 425.969 85.4C426.449 85.3467 426.863 85.36 427.209 85.44C427.343 85.4933 427.476 85.56 427.609 85.64C427.743 85.6933 427.876 85.76 428.009 85.84C428.143 85.9467 428.263 86.0533 428.369 86.16C428.503 86.2667 428.623 86.3867 428.729 86.52C428.863 86.6533 428.983 86.8 429.089 86.96C429.196 87.0933 429.303 87.2267 429.409 87.36C429.489 87.52 429.569 87.6667 429.649 87.8C429.729 87.9333 429.823 88.0667 429.929 88.2L430.369 88.84L439.609 103.4V100.76C439.609 99.9067 439.596 99.04 439.569 98.16C439.569 97.2533 439.556 96.32 439.529 95.36C439.529 94.24 439.529 93.04 439.529 91.76C439.556 90.48 439.596 89.28 439.649 88.16C439.649 87.7067 439.783 87.1867 440.049 86.6C440.183 86.2533 440.409 85.9733 440.729 85.76C441.049 85.5467 441.409 85.4 441.809 85.32C442.209 85.24 442.609 85.24 443.009 85.32C443.409 85.4 443.756 85.56 444.049 85.8C444.129 85.88 444.209 85.9733 444.289 86.08C444.369 86.1867 444.436 86.3067 444.489 86.44C444.623 86.7867 444.703 87.0933 444.729 87.36C444.809 87.7333 444.849 88.0667 444.849 88.36C444.849 91.6933 444.849 95.0933 444.849 98.56C444.876 102.027 444.903 105.427 444.929 108.76C444.929 109.133 444.943 109.507 444.969 109.88C444.996 110.227 444.996 110.587 444.969 110.96ZM468.929 102.36C469.063 102.733 469.156 103.16 469.209 103.64C469.289 104.093 469.329 104.56 469.329 105.04C469.329 105.52 469.289 106 469.209 106.48C469.156 106.933 469.076 107.333 468.969 107.68C468.543 109.173 467.689 110.427 466.409 111.44C465.129 112.427 463.663 113.147 462.009 113.6C460.383 114.053 458.689 114.213 456.929 114.08C455.196 113.947 453.649 113.507 452.289 112.76C451.436 112.28 450.703 111.693 450.089 111C449.476 110.307 448.956 109.533 448.529 108.68C448.369 108.387 448.263 108.053 448.209 107.68C448.183 107.28 448.223 106.907 448.329 106.56C448.436 106.187 448.609 105.867 448.849 105.6C449.089 105.307 449.423 105.107 449.849 105C450.116 104.947 450.409 104.92 450.729 104.92C451.076 104.92 451.409 104.973 451.729 105.08C452.049 105.16 452.343 105.307 452.609 105.52C452.876 105.707 453.089 105.973 453.249 106.32C453.543 106.88 453.956 107.4 454.489 107.88C455.049 108.333 455.636 108.707 456.249 109C457.129 109.293 458.009 109.413 458.889 109.36C459.796 109.307 460.609 109.107 461.329 108.76C462.076 108.413 462.676 107.947 463.129 107.36C463.583 106.747 463.809 106.053 463.809 105.28C463.809 104.64 463.716 104.12 463.529 103.72C463.343 103.293 463.076 102.947 462.729 102.68C462.409 102.387 462.009 102.147 461.529 101.96C461.076 101.773 460.569 101.613 460.009 101.48C459.369 101.347 458.716 101.253 458.049 101.2C457.409 101.147 456.756 101.08 456.089 101C455.423 100.92 454.769 100.813 454.129 100.68C453.489 100.547 452.863 100.347 452.249 100.08C451.023 99.5733 450.089 98.8 449.449 97.76C448.809 96.72 448.423 95.6 448.289 94.4C448.183 93.2 448.329 92.0133 448.729 90.84C449.129 89.64 449.769 88.6133 450.649 87.76C451.503 86.9867 452.516 86.44 453.689 86.12C454.889 85.7733 456.209 85.5733 457.649 85.52C458.449 85.4933 459.249 85.52 460.049 85.6C460.876 85.68 461.663 85.8133 462.409 86C463.183 86.1867 463.889 86.4267 464.529 86.72C465.196 87.0133 465.769 87.36 466.249 87.76C466.596 88.0267 466.943 88.3867 467.289 88.84C467.636 89.2667 467.903 89.7333 468.089 90.24C468.276 90.72 468.329 91.1867 468.249 91.64C468.196 92.0933 467.916 92.48 467.409 92.8C466.983 93.0667 466.569 93.1867 466.169 93.16C465.796 93.1067 465.436 92.9867 465.089 92.8C464.743 92.5867 464.409 92.3467 464.089 92.08C463.769 91.8133 463.476 91.5733 463.209 91.36C462.489 90.8267 461.596 90.4667 460.529 90.28C459.463 90.0933 458.463 90.0533 457.529 90.16C456.943 90.24 456.396 90.3733 455.889 90.56C455.383 90.7467 454.943 91 454.569 91.32C454.223 91.64 453.943 92.04 453.729 92.52C453.543 92.9733 453.476 93.4933 453.529 94.08C453.556 94.5067 453.676 94.8667 453.889 95.16C454.129 95.4533 454.409 95.6933 454.729 95.88C455.076 96.0667 455.449 96.2133 455.849 96.32C456.249 96.4267 456.649 96.5067 457.049 96.56C458.249 96.72 459.449 96.84 460.649 96.92C461.849 97 463.023 97.2667 464.169 97.72C465.343 98.1733 466.343 98.7867 467.169 99.56C467.996 100.333 468.583 101.267 468.929 102.36Z" fill="black"/>
</g>
<defs>
<clipPath id="clip0_405_545">
<rect width="1440" height="1024" fill="white"/>
</clipPath>
</defs>
</svg>
